<svg xmlns="http://www.w3.org/2000/svg" width="1400" height="1400" viewBox="0 0 1400 1400">
<rect width="100%" height="100%" fill="white"/>
<text x="700.0" y="74" text-anchor="middle" font-family="'Times New Roman', 'Nimbus Roman', serif" font-size="52" font-weight="700" fill="#111827">Training Reward Curve: Dr.GRPO vs Dr.GRPO-Explorer</text>
<line x1="170.0" y1="1060.0" x2="1305.0" y2="1060.0" stroke="#e5e7eb" stroke-width="2"/>
<text x="156.0" y="1070.0" text-anchor="end" font-family="'Times New Roman', 'Nimbus Roman', serif" font-size="36" fill="#6b7280">0.37</text>
<line x1="170.0" y1="1005.5" x2="1305.0" y2="1005.5" stroke="#e5e7eb" stroke-width="2"/>
<text x="156.0" y="1015.5" text-anchor="end" font-family="'Times New Roman', 'Nimbus Roman', serif" font-size="36" fill="#6b7280">0.39</text>
<line x1="170.0" y1="950.9" x2="1305.0" y2="950.9" stroke="#e5e7eb" stroke-width="2"/>
<text x="156.0" y="960.9" text-anchor="end" font-family="'Times New Roman', 'Nimbus Roman', serif" font-size="36" fill="#6b7280">0.41</text>
<line x1="170.0" y1="896.4" x2="1305.0" y2="896.4" stroke="#e5e7eb" stroke-width="2"/>
<text x="156.0" y="906.4" text-anchor="end" font-family="'Times New Roman', 'Nimbus Roman', serif" font-size="36" fill="#6b7280">0.43</text>
<line x1="170.0" y1="841.8" x2="1305.0" y2="841.8" stroke="#e5e7eb" stroke-width="2"/>
<text x="156.0" y="851.8" text-anchor="end" font-family="'Times New Roman', 'Nimbus Roman', serif" font-size="36" fill="#6b7280">0.45</text>
<line x1="170.0" y1="787.3" x2="1305.0" y2="787.3" stroke="#e5e7eb" stroke-width="2"/>
<text x="156.0" y="797.3" text-anchor="end" font-family="'Times New Roman', 'Nimbus Roman', serif" font-size="36" fill="#6b7280">0.47</text>
<line x1="170.0" y1="732.7" x2="1305.0" y2="732.7" stroke="#e5e7eb" stroke-width="2"/>
<text x="156.0" y="742.7" text-anchor="end" font-family="'Times New Roman', 'Nimbus Roman', serif" font-size="36" fill="#6b7280">0.49</text>
<line x1="170.0" y1="678.2" x2="1305.0" y2="678.2" stroke="#e5e7eb" stroke-width="2"/>
<text x="156.0" y="688.2" text-anchor="end" font-family="'Times New Roman', 'Nimbus Roman', serif" font-size="36" fill="#6b7280">0.51</text>
<line x1="170.0" y1="623.6" x2="1305.0" y2="623.6" stroke="#e5e7eb" stroke-width="2"/>
<text x="156.0" y="633.6" text-anchor="end" font-family="'Times New Roman', 'Nimbus Roman', serif" font-size="36" fill="#6b7280">0.53</text>
<line x1="170.0" y1="569.1" x2="1305.0" y2="569.1" stroke="#e5e7eb" stroke-width="2"/>
<text x="156.0" y="579.1" text-anchor="end" font-family="'Times New Roman', 'Nimbus Roman', serif" font-size="36" fill="#6b7280">0.55</text>
<line x1="170.0" y1="514.5" x2="1305.0" y2="514.5" stroke="#e5e7eb" stroke-width="2"/>
<text x="156.0" y="524.5" text-anchor="end" font-family="'Times New Roman', 'Nimbus Roman', serif" font-size="36" fill="#6b7280">0.57</text>
<line x1="170.0" y1="460.0" x2="1305.0" y2="460.0" stroke="#e5e7eb" stroke-width="2"/>
<text x="156.0" y="470.0" text-anchor="end" font-family="'Times New Roman', 'Nimbus Roman', serif" font-size="36" fill="#6b7280">0.59</text>
<line x1="170.0" y1="405.5" x2="1305.0" y2="405.5" stroke="#e5e7eb" stroke-width="2"/>
<text x="156.0" y="415.5" text-anchor="end" font-family="'Times New Roman', 'Nimbus Roman', serif" font-size="36" fill="#6b7280">0.61</text>
<line x1="170.0" y1="350.9" x2="1305.0" y2="350.9" stroke="#e5e7eb" stroke-width="2"/>
<text x="156.0" y="360.9" text-anchor="end" font-family="'Times New Roman', 'Nimbus Roman', serif" font-size="36" fill="#6b7280">0.63</text>
<line x1="170.0" y1="296.4" x2="1305.0" y2="296.4" stroke="#e5e7eb" stroke-width="2"/>
<text x="156.0" y="306.4" text-anchor="end" font-family="'Times New Roman', 'Nimbus Roman', serif" font-size="36" fill="#6b7280">0.65</text>
<line x1="170.0" y1="241.8" x2="1305.0" y2="241.8" stroke="#e5e7eb" stroke-width="2"/>
<text x="156.0" y="251.8" text-anchor="end" font-family="'Times New Roman', 'Nimbus Roman', serif" font-size="36" fill="#6b7280">0.67</text>
<line x1="170.0" y1="187.3" x2="1305.0" y2="187.3" stroke="#e5e7eb" stroke-width="2"/>
<text x="156.0" y="197.3" text-anchor="end" font-family="'Times New Roman', 'Nimbus Roman', serif" font-size="36" fill="#6b7280">0.69</text>
<line x1="170.0" y1="160.0" x2="170.0" y2="1060.0" stroke="#111827" stroke-width="3"/>
<line x1="170.0" y1="1060.0" x2="1305.0" y2="1060.0" stroke="#111827" stroke-width="3"/>
<line x1="332.4" y1="1060.0" x2="332.4" y2="1070.0" stroke="#111827" stroke-width="2"/>
<text x="332.4" y="1118.0" text-anchor="middle" font-family="'Times New Roman', 'Nimbus Roman', serif" font-size="36" fill="#6b7280">0.5</text>
<line x1="499.5" y1="1060.0" x2="499.5" y2="1070.0" stroke="#111827" stroke-width="2"/>
<text x="499.5" y="1118.0" text-anchor="middle" font-family="'Times New Roman', 'Nimbus Roman', serif" font-size="36" fill="#6b7280">1.0</text>
<line x1="666.6" y1="1060.0" x2="666.6" y2="1070.0" stroke="#111827" stroke-width="2"/>
<text x="666.6" y="1118.0" text-anchor="middle" font-family="'Times New Roman', 'Nimbus Roman', serif" font-size="36" fill="#6b7280">1.5</text>
<line x1="833.7" y1="1060.0" x2="833.7" y2="1070.0" stroke="#111827" stroke-width="2"/>
<text x="833.7" y="1118.0" text-anchor="middle" font-family="'Times New Roman', 'Nimbus Roman', serif" font-size="36" fill="#6b7280">2.0</text>
<line x1="1000.9" y1="1060.0" x2="1000.9" y2="1070.0" stroke="#111827" stroke-width="2"/>
<text x="1000.9" y="1118.0" text-anchor="middle" font-family="'Times New Roman', 'Nimbus Roman', serif" font-size="36" fill="#6b7280">2.5</text>
<line x1="1168.0" y1="1060.0" x2="1168.0" y2="1070.0" stroke="#111827" stroke-width="2"/>
<text x="1168.0" y="1118.0" text-anchor="middle" font-family="'Times New Roman', 'Nimbus Roman', serif" font-size="36" fill="#6b7280">3.0</text>
<line x1="1305.0" y1="1060.0" x2="1305.0" y2="1070.0" stroke="#111827" stroke-width="2"/>
<text x="1305.0" y="1118.0" text-anchor="middle" font-family="'Times New Roman', 'Nimbus Roman', serif" font-size="36" fill="#6b7280">3.4</text>
<text x="737.5" y="1186.0" text-anchor="middle" font-family="'Times New Roman', 'Nimbus Roman', serif" font-size="50" font-weight="700" fill="#111827">Training epoch</text>
<text x="44" y="610.0" text-anchor="middle" transform="rotate(-90 44 610.0)" font-family="'Times New Roman', 'Nimbus Roman', serif" font-size="50" font-weight="700" fill="#111827">Seed boxed accuracy reward (mean)</text>
<polyline fill="none" stroke="#1f77b4" stroke-opacity="0.67" stroke-width="4" points="170.0,745.2 174.7,742.4 179.4,912.8 184.1,668.5 188.8,665.7 193.5,804.9 198.2,799.2 202.9,929.9 207.6,836.1 212.4,907.2 217.1,918.5 221.8,839.0 226.5,893.0 231.2,802.0 235.9,756.6 240.6,878.8 245.3,736.7 250.0,759.4 254.7,819.1 259.4,890.1 264.1,699.8 268.8,802.0 273.5,819.1 278.2,745.2 282.9,739.5 287.6,807.7 292.3,932.7 297.1,910.0 301.8,711.1 306.5,944.1 311.2,901.5 315.9,677.0 320.6,762.3 325.3,665.7 330.0,725.3 334.7,989.5 339.4,722.5 344.1,864.5 348.8,750.9 353.5,856.0 358.2,790.7 362.9,787.8 367.6,802.0 372.3,833.3 377.1,736.7 381.8,745.2 386.5,614.5 391.2,773.6 395.9,958.3 400.6,688.4 405.3,802.0 410.0,804.9 414.7,787.8 419.4,694.1 424.1,759.4 428.8,864.5 433.5,804.9 438.2,824.8 442.9,762.3 447.6,819.1 452.3,765.1 457.0,739.5 461.8,662.8 466.5,873.1 471.2,679.9 475.9,733.9 480.6,785.0 485.3,782.2 490.0,722.5 494.7,929.9 499.4,623.1 504.2,830.5 508.9,674.2 513.6,776.5 518.3,665.7 523.0,839.0 527.8,821.9 532.5,884.4 537.2,768.0 541.9,759.4 546.6,779.3 551.3,549.2 556.0,728.2 560.7,540.7 565.4,654.3 570.1,830.5 574.8,716.8 579.5,716.8 584.2,927.0 588.9,731.0 593.6,773.6 598.3,870.2 603.0,768.0 607.8,830.5 612.5,688.4 617.2,861.7 621.9,745.2 626.6,810.6 631.3,753.7 636.0,887.3 640.7,793.5 645.4,679.9 650.1,566.3 654.8,742.4 659.5,714.0 664.2,705.5 668.9,691.3 673.6,597.5 678.3,586.1 683.0,785.0 687.7,569.1 692.5,782.2 697.2,600.3 701.9,895.8 706.6,756.6 711.3,694.1 716.0,799.2 720.7,753.7 725.4,696.9 730.1,583.3 734.8,733.9 739.5,773.6 744.2,799.2 748.9,793.5 753.6,569.1 758.3,645.8 763.0,458.3 767.7,660.0 772.5,620.2 777.2,796.4 781.9,719.7 786.6,665.7 791.3,753.7 796.0,623.1 800.7,404.3 805.4,716.8 810.1,910.0 814.8,719.7 819.5,483.9 824.2,608.9 828.9,685.6 833.6,608.9 838.4,640.1 843.2,810.6 847.9,614.5 852.6,719.7 857.3,677.0 862.0,449.8 866.7,762.3 871.4,623.1 876.1,603.2 880.8,648.6 885.5,532.2 890.2,628.8 894.9,677.0 899.6,606.0 904.3,634.4 909.0,759.4 913.7,625.9 918.4,634.4 923.2,790.7 927.9,577.6 932.6,665.7 937.3,787.8 942.0,768.0 946.7,699.8 951.4,546.4 956.1,586.1 960.8,569.1 965.5,625.9 970.2,552.0 974.9,537.8 979.6,560.6 984.3,733.9 989.0,637.3 993.7,674.2 998.4,606.0 1003.1,580.5 1007.9,668.5 1012.6,654.3 1017.3,679.9 1022.0,586.1 1026.7,631.6 1031.4,506.6 1036.1,614.5 1040.8,733.9 1045.5,875.9 1050.2,691.3 1054.9,569.1 1059.6,665.7 1064.3,725.3 1069.0,546.4 1073.7,589.0 1078.4,722.5 1083.1,532.2 1087.9,563.4 1092.6,526.5 1097.3,614.5 1102.0,773.6 1106.7,483.9 1111.4,770.8 1116.1,557.7 1120.8,316.2 1125.5,802.0 1130.2,645.8 1134.9,742.4 1139.6,532.2 1144.3,753.7 1149.0,571.9 1153.7,796.4 1158.4,600.3 1163.1,506.6 1167.9,549.2 1172.7,679.9 1177.4,606.0 1182.1,574.8 1186.8,625.9 1191.5,483.9 1196.2,696.9 1200.9,600.3 1205.6,699.8 1210.3,591.8 1215.0,594.7 1219.7,714.0 1224.4,606.0 1228.1,614.5 1234.8,614.5 1238.2,500.9 1244.8,688.4 1248.2,645.8 1251.5,770.8 1258.2,722.5 1261.6,464.0 1268.2,665.7 1271.6,486.7 1274.9,557.7 1281.6,483.9 1284.9,671.4 1291.6,537.8 1295.0,577.6 1298.3,515.1 1305.0,574.8"/>
<polyline fill="none" stroke="#1f77b4" stroke-opacity="1.0" stroke-width="7" points="170.0,745.2 174.7,743.8 179.4,800.2 184.1,767.2 188.8,746.9 193.5,756.6 198.2,762.7 202.9,783.6 207.6,789.4 212.4,807.4 217.1,827.0 221.8,818.8 226.5,843.7 231.2,858.9 235.9,853.5 240.6,862.3 245.3,840.9 250.0,832.3 254.7,822.6 259.4,819.4 264.1,803.9 268.8,793.8 273.5,795.7 278.2,794.5 282.9,779.0 287.6,786.9 292.3,806.1 297.1,816.2 301.8,796.4 306.5,823.5 311.2,834.6 315.9,818.8 320.6,820.7 325.3,812.5 330.0,803.3 334.7,809.6 339.4,788.8 344.1,805.8 348.8,784.4 353.5,779.3 358.2,791.9 362.9,794.8 367.6,809.9 372.3,821.9 377.1,793.8 381.8,796.4 386.5,768.6 391.2,771.1 395.9,782.5 400.6,771.1 405.3,772.7 410.0,773.0 414.7,768.0 419.4,763.2 424.1,764.8 428.8,792.6 433.5,796.0 438.2,781.2 442.9,789.4 447.6,791.3 452.3,786.9 457.0,781.5 461.8,778.1 466.5,790.7 471.2,770.2 475.9,762.3 480.6,757.9 485.3,760.1 490.0,749.3 494.7,767.6 499.4,754.7 504.2,773.3 508.9,751.2 513.6,762.0 518.3,754.4 523.0,760.4 527.8,764.8 532.5,782.8 537.2,764.8 541.9,779.9 546.6,774.3 551.3,760.4 556.0,755.0 560.7,741.1 565.4,720.6 570.1,721.6 574.8,702.9 579.5,697.2 584.2,715.9 588.9,710.5 593.6,735.4 598.3,751.2 603.0,776.5 607.8,796.0 612.5,780.3 617.2,796.4 621.9,799.5 626.6,786.6 631.3,789.1 636.0,801.7 640.7,793.2 645.4,783.4 650.1,754.1 654.8,760.1 659.5,743.6 664.2,739.2 668.9,726.0 673.6,708.6 678.3,675.2 683.0,674.2 687.7,661.9 692.5,685.9 697.2,670.1 701.9,690.3 706.6,696.0 711.3,696.3 716.0,718.7 720.7,737.3 725.4,727.6 730.1,729.1 734.8,723.8 739.5,743.0 744.2,732.3 748.9,736.4 753.6,722.5 758.3,705.5 763.0,672.6 767.7,668.5 772.5,672.6 777.2,679.6 781.9,673.6 786.6,658.7 791.3,654.3 796.0,660.3 800.7,633.5 805.4,662.2 810.1,690.0 814.8,701.0 819.5,666.3 824.2,654.0 828.9,656.2 833.6,640.1 838.4,642.0 843.2,687.1 847.9,675.8 852.6,654.6 857.3,649.9 862.0,646.1 866.7,663.2 871.4,656.2 876.1,655.6 880.8,656.5 885.5,625.6 890.2,627.2 894.9,622.4 899.6,614.5 904.3,635.1 909.0,634.7 913.7,635.1 918.4,638.5 923.2,654.3 927.9,659.4 932.6,663.5 937.3,675.8 942.0,693.8 946.7,701.0 951.4,677.4 956.1,672.9 960.8,665.7 965.5,647.4 970.2,644.5 974.9,630.3 979.6,605.1 984.3,601.3 989.0,594.3 993.7,608.5 998.4,610.8 1003.1,612.0 1007.9,616.8 1012.6,628.1 1017.3,643.9 1022.0,646.7 1026.7,635.4 1031.4,620.9 1036.1,614.2 1040.8,628.4 1045.5,661.3 1050.2,663.8 1054.9,654.3 1059.6,652.7 1064.3,668.2 1069.0,658.7 1073.7,667.9 1078.4,679.9 1083.1,657.5 1087.9,622.8 1092.6,604.4 1097.3,609.5 1102.0,621.5 1106.7,594.7 1111.4,619.6 1116.1,616.1 1120.8,571.0 1125.5,601.0 1130.2,610.1 1134.9,634.1 1139.6,625.0 1144.3,622.8 1149.0,632.5 1153.7,635.4 1158.4,640.1 1163.1,661.3 1167.9,633.2 1172.7,637.0 1177.4,621.8 1182.1,626.5 1186.8,612.3 1191.5,602.6 1196.2,591.5 1200.9,591.5 1205.6,613.0 1210.3,617.7 1215.0,608.2 1219.7,620.2 1224.4,623.7 1228.1,622.4 1234.8,637.0 1238.2,615.2 1244.8,625.0 1248.2,619.0 1251.5,638.9 1258.2,653.1 1261.6,625.3 1268.2,631.9 1271.6,617.7 1274.9,611.4 1281.6,609.5 1284.9,607.6 1291.6,595.6 1295.0,574.1 1298.3,551.1 1305.0,563.4"/>
<circle cx="1305.0" cy="563.4" r="8" fill="white" stroke="#1f77b4" stroke-width="4"/>
<polyline fill="none" stroke="#ff7f0e" stroke-opacity="0.67" stroke-width="4" points="170.0,745.2 174.7,765.1 179.4,847.5 184.1,660.0 188.8,696.9 193.5,844.7 198.2,827.6 202.9,949.8 207.6,887.3 212.4,938.4 217.1,935.6 221.8,890.1 226.5,807.7 231.2,836.1 235.9,708.3 240.6,870.2 245.3,722.5 250.0,739.5 254.7,878.8 259.4,856.0 264.1,816.3 268.8,810.6 273.5,839.0 278.2,722.5 282.9,699.8 287.6,787.8 292.3,915.7 297.1,841.8 301.8,705.5 306.5,921.4 311.2,938.4 315.9,679.9 320.6,677.0 325.3,620.2 330.0,716.8 334.7,867.4 339.4,716.8 344.1,830.5 348.8,739.5 353.5,807.7 358.2,756.6 362.9,807.7 367.6,793.5 372.3,856.0 377.1,736.7 381.8,696.9 386.5,543.5 391.2,702.6 395.9,893.0 400.6,628.8 405.3,648.6 410.0,725.3 414.7,719.7 419.4,677.0 424.1,716.8 428.8,813.4 433.5,793.5 438.2,682.7 442.9,827.6 447.6,773.6 452.3,657.2 457.0,685.6 461.8,506.6 466.5,739.5 471.2,600.3 475.9,614.5 480.6,762.3 485.3,725.3 490.0,708.3 494.7,821.9 499.4,668.5 504.2,787.8 508.9,643.0 513.6,770.8 518.3,563.4 523.0,847.5 527.8,762.3 532.5,856.0 537.2,679.9 541.9,705.5 546.6,733.9 551.3,512.3 556.0,645.8 560.7,532.2 565.4,606.0 570.1,776.5 574.8,574.8 579.5,571.9 584.2,841.8 588.9,614.5 593.6,742.4 598.3,773.6 603.0,699.8 607.8,733.9 612.5,594.7 617.2,827.6 621.9,688.4 626.6,725.3 631.3,637.3 636.0,793.5 640.7,623.1 645.4,591.8 650.1,455.5 654.8,665.7 659.5,671.4 664.2,728.2 668.9,563.4 673.6,495.2 678.3,580.5 683.0,708.3 687.7,597.5 692.5,679.9 697.2,500.9 701.9,691.3 706.6,645.8 711.3,537.8 716.0,711.1 720.7,705.5 725.4,623.1 730.1,503.7 734.8,557.7 739.5,560.6 744.2,645.8 748.9,714.0 753.6,486.7 758.3,617.4 763.0,378.7 767.7,614.5 772.5,523.6 777.2,645.8 781.9,628.8 786.6,628.8 791.3,623.1 796.0,515.1 800.7,407.2 805.4,540.7 810.1,813.4 814.8,665.7 819.5,481.0 824.2,486.7 828.9,560.6 833.6,608.9 838.4,557.7 843.2,665.7 847.9,537.8 852.6,637.3 857.3,648.6 862.0,395.8 866.7,657.2 871.4,569.1 876.1,475.3 880.8,543.5 885.5,418.5 890.2,466.8 894.9,574.8 899.6,543.5 904.3,498.1 909.0,733.9 913.7,617.4 918.4,569.1 923.2,651.5 927.9,614.5 932.6,535.0 937.3,753.7 942.0,748.1 946.7,608.9 951.4,495.2 956.1,571.9 960.8,546.4 965.5,401.5 970.2,435.6 974.9,520.8 979.6,464.0 984.3,614.5 989.0,523.6 993.7,640.1 998.4,518.0 1003.1,449.8 1007.9,600.3 1012.6,532.2 1017.3,589.0 1022.0,486.7 1026.7,540.7 1031.4,361.7 1036.1,549.2 1040.8,614.5 1045.5,716.8 1050.2,557.7 1054.9,472.5 1059.6,586.1 1064.3,608.9 1069.0,537.8 1073.7,452.6 1078.4,657.2 1083.1,393.0 1087.9,481.0 1092.6,410.0 1097.3,466.8 1102.0,691.3 1106.7,358.9 1111.1,600.3 1114.5,441.2 1121.2,231.0 1124.5,762.3 1131.2,583.3 1134.5,631.6 1141.2,398.6 1144.6,671.4 1147.9,356.0 1154.6,714.0"/>
<polyline fill="none" stroke="#ff7f0e" stroke-opacity="1.0" stroke-width="7" points="170.0,745.2 174.7,755.2 179.4,785.9 184.1,754.5 188.8,743.0 193.5,759.9 198.2,769.6 202.9,792.1 207.6,802.7 212.4,824.1 217.1,843.1 221.8,847.8 226.5,864.2 231.2,879.7 235.9,864.5 240.6,869.3 245.3,844.0 250.0,827.6 254.7,821.0 259.4,812.1 264.1,803.9 268.8,804.3 273.5,804.6 278.2,806.1 282.9,787.2 287.6,794.5 292.3,814.0 297.1,809.9 301.8,793.2 306.5,804.9 311.2,819.1 315.9,801.4 320.6,796.4 325.3,787.5 330.0,779.6 334.7,774.3 339.4,760.4 344.1,774.3 348.8,754.1 353.5,739.5 358.2,748.1 362.9,762.6 367.6,781.8 372.3,797.3 377.1,782.8 381.8,780.6 386.5,748.7 391.2,744.6 395.9,754.1 400.6,739.9 405.3,722.2 410.0,714.6 414.7,699.5 419.4,692.8 424.1,695.0 428.8,725.0 433.5,735.1 438.2,711.8 442.9,733.9 447.6,747.8 452.3,740.2 457.0,736.4 461.8,717.4 466.5,720.0 471.2,696.3 475.9,676.4 480.6,685.3 485.3,673.9 490.0,666.6 494.7,684.9 499.4,683.0 504.2,714.3 508.9,703.6 513.6,722.5 518.3,716.8 523.0,726.3 527.8,730.4 532.5,746.8 537.2,731.0 541.9,735.1 546.6,729.1 551.3,714.6 556.0,700.7 560.7,697.2 565.4,670.4 570.1,672.0 574.8,640.7 579.5,628.7 584.2,643.9 588.9,630.6 593.6,656.2 598.3,670.4 603.0,689.0 607.8,703.2 612.5,683.0 617.2,711.1 621.9,724.1 626.6,711.1 631.3,713.7 636.0,719.3 640.7,702.6 645.4,690.6 650.1,659.7 654.8,667.6 659.5,650.2 664.2,654.6 668.9,636.6 673.6,620.9 678.3,597.2 683.0,606.7 687.7,607.3 692.5,632.2 697.2,613.9 701.9,616.1 706.6,607.0 711.3,604.1 716.0,628.1 720.7,642.0 725.4,632.5 730.1,622.1 734.8,608.5 739.5,615.2 744.2,610.1 748.9,617.7 753.6,612.0 758.3,601.6 763.0,565.3 767.7,564.4 772.5,566.6 777.2,576.4 781.9,583.9 786.6,582.0 791.3,571.9 796.0,575.1 800.7,551.7 805.4,569.7 810.1,591.8 814.8,607.6 819.5,589.3 824.2,573.5 828.9,565.9 833.6,564.4 838.4,569.1 843.2,597.8 847.9,597.5 852.6,577.9 857.3,576.0 862.0,566.6 866.7,585.5 871.4,586.5 876.1,571.6 880.8,570.0 885.5,542.6 890.2,534.7 894.9,527.7 899.6,516.1 904.3,527.4 909.0,535.9 913.7,541.3 918.4,551.7 923.2,563.7 927.9,585.5 932.6,593.1 937.3,613.0 942.0,635.7 946.7,648.0 951.4,621.5 956.1,616.4 960.8,613.9 965.5,586.1 970.2,566.2 974.9,564.7 979.6,532.5 984.3,517.6 989.0,508.2 993.7,524.3 998.4,518.3 1003.1,507.5 1007.9,529.6 1012.6,540.4 1017.3,547.9 1022.0,550.5 1026.7,542.3 1031.4,524.3 1036.1,514.2 1040.8,524.9 1045.5,554.6 1050.2,549.8 1054.9,543.2 1059.6,542.9 1064.3,556.5 1069.0,556.1 1073.7,566.2 1078.4,578.2 1083.1,553.6 1087.9,527.4 1092.6,511.0 1097.3,510.4 1102.0,522.1 1106.7,494.3 1111.1,501.2 1114.5,500.0 1121.2,452.6 1124.5,493.6 1131.2,505.0 1134.5,529.6 1141.2,522.1 1144.6,519.8 1147.9,519.5 1154.6,532.2"/>
<circle cx="1154.6" cy="532.2" r="8" fill="white" stroke="#ff7f0e" stroke-width="4"/>
<rect x="174.0" y="162.0" width="509.0" height="136.0" rx="16" ry="16" fill="white" fill-opacity="0.92" stroke="#d1d5db" stroke-width="2"/>
<line x1="198.0" y1="194.0" x2="268.0" y2="194.0" stroke="#1f77b4" stroke-width="6"/>
<circle cx="224.0" cy="194.0" r="5" fill="#1f77b4" stroke="#1f77b4"/>
<text x="290.0" y="206.0" font-family="'Times New Roman', 'Nimbus Roman', serif" font-size="48" fill="#111827">Dr.GRPO</text>
<line x1="198.0" y1="256.0" x2="268.0" y2="256.0" stroke="#ff7f0e" stroke-width="6"/>
<circle cx="224.0" cy="256.0" r="5" fill="#ff7f0e" stroke="#ff7f0e"/>
<text x="290.0" y="268.0" font-family="'Times New Roman', 'Nimbus Roman', serif" font-size="48" fill="#111827">Dr.GRPO-Explorer</text>
</svg>
